<?xml version="1.0" standalone="no"?>
<!DOCTYPE svg PUBLIC "-//W3C//DTD SVG 20010904//EN"
 "http://www.w3.org/TR/2001/REC-SVG-20010904/DTD/svg10.dtd">
<svg version="1.0" xmlns="http://www.w3.org/2000/svg"
 width="512.000000pt" height="512.000000pt" viewBox="0 0 512.000000 512.000000"
 preserveAspectRatio="xMidYMid meet">
<metadata>
Created by potrace 1.11, written by Peter Selinger 2001-2013
</metadata>
<g transform="translate(0.000000,512.000000) scale(0.100000,-0.100000)"
fill="#000000" stroke="none">
<path d="M2916 5005 c-56 -20 -107 -65 -136 -121 -25 -48 -25 -52 -26 -309
l-1 -260 -459 -2 c-252 -1 -479 -4 -504 -8 -25 -4 -46 -7 -47 -6 -2 0 -32 -10
-68 -24 -198 -74 -344 -256 -371 -460 -9 -70 -9 -3147 1 -3220 26 -211 179
-394 390 -466 l70 -24 780 0 c429 0 800 3 824 7 66 11 199 80 259 134 94 84
156 191 182 319 10 46 12 425 12 1650 0 1762 5 1646 -65 1785 -44 89 -160 204
-248 247 -77 37 -170 63 -228 63 -36 0 -41 3 -41 23 0 12 -1 132 -3 267 -2
228 -4 248 -24 285 -57 107 -187 160 -297 120z m415 -1157 c44 -19 77 -52 96
-97 19 -45 22 -1118 3 -1178 -16 -51 -64 -99 -114 -116 -58 -19 -1462 -17
-1518 2 -46 15 -104 81 -112 127 -9 47 -9 1104 0 1140 16 64 67 116 132 133
15 4 353 7 752 7 645 -1 729 -3 761 -18z m-988 -1859 c47 -22 52 -46 51 -272
l-1 -210 -32 -29 -31 -28 -205 0 c-128 0 -213 4 -228 11 -47 21 -52 46 -52
264 0 214 5 242 49 263 29 15 418 15 449 1z m880 0 c47 -21 51 -40 52 -257 1
-220 -5 -250 -51 -271 -16 -7 -98 -11 -229 -11 l-205 0 -32 29 -32 28 0 201
c-1 111 2 214 6 229 15 56 42 62 265 63 123 0 211 -4 226 -11z m-876 -828 c13
-6 28 -21 35 -34 14 -27 19 -398 5 -440 -18 -56 -41 -62 -251 -63 -105 0 -206
3 -224 8 -61 17 -66 38 -67 257 -1 244 4 265 78 280 56 12 400 6 424 -8z m892
-10 c17 -12 32 -32 32 -44 1 -12 3 -107 4 -212 2 -195 -3 -224 -40 -255 -13
-11 -62 -14 -219 -15 -110 -1 -214 3 -229 8 -56 19 -60 38 -61 265 0 184 2
210 18 235 10 15 31 30 48 35 16 4 116 7 222 6 183 -1 195 -2 225 -23z"/>
</g>
</svg>
